# xmcd
#
# Track frame offsets:
#	150
#	33107
#	69986
#	112809
#	125882
#	151425
#	176392
#	207768
#	260852
#	305376
#
# Disc length: 4520 seconds
#
# Revision: 1
# Processed by: cddbd v1.5.2PL0 Copyright (c) Steve Scherf et al.
# Submitted via: audiograbber 1.83.01
#
DISCID=8311a60a
DTITLE=Grateful Dead - 89-05-07 Frost Amphitheatre, Palo Alto CA
DYEAR=1900
DGENRE=
TTITLE0=Iko Iko
TTITLE1=Little Red Rooster
TTITLE2=Bertha
TTITLE3=Me and My Uncle
TTITLE4=Mexicali Blues
TTITLE5=Built To Last
TTITLE6=Picasso Moon
TTITLE7=Bird Song
TTITLE8=Foolish Heart
TTITLE9=Victim Or The Crime
EXTD=
EXTT0=
EXTT1=
EXTT2=
EXTT3=
EXTT4=
EXTT5=
EXTT6=
EXTT7=
EXTT8=
EXTT9=
PLAYORDER=
